<?xml version="1.0" ?><svg enable-background="new 0 0 64 64" id="Layer_1" version="1.1" viewBox="0 0 64 64" xml:space="preserve" xmlns="http://www.w3.org/2000/svg" xmlns:xlink="http://www.w3.org/1999/xlink"><g><g><path d="M14.827,0.936c-7.756,0-14.043,6.287-14.043,14.043c0,7.756,6.287,14.043,14.043,14.043    S28.87,22.734,28.87,14.979C28.87,7.223,22.583,0.936,14.827,0.936z M14.827,25.14c-5.612,0-10.161-4.549-10.161-10.161    c0-5.612,4.549-10.161,10.161-10.161s10.161,4.549,10.161,10.161C24.988,20.59,20.439,25.14,14.827,25.14z" fill="#2E7EB8"/><path d="M21.482,10.062c-0.379-0.396-0.889-0.614-1.439-0.614c0,0,0,0,0,0c-0.553,0-1.066,0.22-1.439,0.613    l-3.999,3.964l-1.516,1.517l-2.029-1.997c-0.379-0.4-0.893-0.62-1.445-0.62c0,0,0,0,0,0c-0.553,0-1.066,0.22-1.435,0.608    c-0.4,0.38-0.62,0.893-0.62,1.446c0,0.553,0.22,1.066,0.614,1.44l3.465,3.465c0.358,0.398,0.887,0.626,1.451,0.626    c0.564,0,1.093-0.228,1.44-0.614l6.947-6.947c0.4-0.38,0.62-0.893,0.62-1.446C22.096,10.952,21.878,10.441,21.482,10.062z" fill="#2E7EB8"/></g><g><path d="M49.173,34.978c-7.756,0-14.043,6.287-14.043,14.043c0,7.756,6.287,14.043,14.043,14.043    s14.043-6.287,14.043-14.043C63.216,41.266,56.929,34.978,49.173,34.978z M49.173,59.183c-5.612,0-10.161-4.549-10.161-10.161    c0-5.612,4.549-10.161,10.161-10.161s10.161,4.549,10.161,10.161C59.334,54.633,54.785,59.183,49.173,59.183z" fill="#2E7EB8"/><path d="M55.828,44.105c-0.379-0.396-0.889-0.614-1.439-0.614h-0.001c-0.552,0-1.066,0.22-1.439,0.613    l-3.999,3.964l-1.516,1.517l-2.029-1.997c-0.379-0.4-0.893-0.62-1.445-0.62h-0.001c-0.552,0-1.066,0.22-1.434,0.608    c-0.4,0.38-0.62,0.893-0.62,1.446c0,0.553,0.22,1.066,0.614,1.44l3.465,3.465c0.358,0.398,0.887,0.626,1.451,0.626    c0.564,0,1.093-0.228,1.44-0.614l6.947-6.947c0.4-0.38,0.62-0.893,0.62-1.446C56.442,44.995,56.223,44.484,55.828,44.105z" fill="#2E7EB8"/></g><g><path d="M49.173,0.936c-7.756,0-14.043,6.287-14.043,14.043c0,7.756,6.287,14.043,14.043,14.043    s14.043-6.287,14.043-14.043C63.216,7.223,56.929,0.936,49.173,0.936z M49.173,25.14c-5.612,0-10.161-4.549-10.161-10.161    c0-5.612,4.549-10.161,10.161-10.161s10.161,4.549,10.161,10.161C59.334,20.59,54.785,25.14,49.173,25.14z" fill="#3D4753"/><path d="M54.884,17.728c0.846,0.804,0.846,2.158,0,2.962c-0.804,0.846-2.157,0.846-2.961,0l-2.75-2.708    l-2.75,2.708c-0.804,0.846-2.157,0.846-2.961,0c-0.847-0.803-0.847-2.157,0-2.962l2.708-2.75l-2.708-2.75    c-0.846-0.803-0.846-2.157,0-2.962c0.804-0.846,2.157-0.846,2.961,0l2.75,2.708l2.75-2.708c0.804-0.846,2.157-0.846,2.961,0    c0.847,0.804,0.847,2.158,0,2.962l-2.708,2.75L54.884,17.728z" fill="#3D4753"/></g><g><path d="M14.827,34.978c-7.756,0-14.043,6.287-14.043,14.043c0,7.756,6.287,14.043,14.043,14.043    S28.87,56.777,28.87,49.021C28.87,41.266,22.583,34.978,14.827,34.978z M14.827,59.183c-5.612,0-10.161-4.549-10.161-10.161    c0-5.612,4.549-10.161,10.161-10.161s10.161,4.549,10.161,10.161C24.988,54.633,20.439,59.183,14.827,59.183z" fill="#3D4753"/><path d="M20.538,51.771c0.846,0.804,0.846,2.158,0,2.962c-0.804,0.846-2.157,0.846-2.961,0l-2.75-2.708    l-2.75,2.708c-0.804,0.846-2.157,0.846-2.961,0c-0.847-0.803-0.847-2.157,0-2.962l2.708-2.75l-2.708-2.75    c-0.846-0.803-0.846-2.157,0-2.962c0.804-0.846,2.157-0.846,2.961,0l2.75,2.708l2.75-2.708c0.804-0.846,2.157-0.846,2.961,0    c0.847,0.804,0.847,2.158,0,2.962l-2.708,2.75L20.538,51.771z" fill="#3D4753"/></g></g></svg>