<svg width="64" height="64" xmlns="http://www.w3.org/2000/svg">

 <g>
  <title>background</title>
  <rect fill="none" id="canvas_background" height="402" width="582" y="-1" x="-1"/>
 </g>
 <g>
  <title>Layer 1</title>
  <circle id="svg_2" r="32" fill="#6b877c" cy="32" cx="32"/>
  <path opacity="0.2" id="svg_5" fill="#231F20" d="m12,25l0,25c0,2.209 1.791,4 4,4l32,0c2.209,0 4,-1.791 4,-4l0,-25l-40,0z"/>
  <path id="svg_7" fill="#FFFFFF" d="m12,23l0,25c0,2.209 1.791,4 4,4l32,0c2.209,0 4,-1.791 4,-4l0,-25l-40,0z"/>
  <path opacity="0.2" id="svg_9" fill="#231F20" d="m48,14l-32,0c-2.209,0 -4,1.791 -4,4l0,7l40,0l0,-7c0,-2.209 -1.791,-4 -4,-4z"/>
  <path id="svg_11" fill="#C75C5C" d="m48,12l-32,0c-2.209,0 -4,1.791 -4,4l0,7l40,0l0,-7c0,-2.209 -1.791,-4 -4,-4z"/>
  <path id="svg_13" fill="#4F5D73" d="m32,48c-1.104,0 -2,-0.896 -2,-2c0,-5.515 1.757,-9.455 3.491,-12l-6.491,0c-1.104,0 -2,-0.896 -2,-2s0.896,-2 2,-2l11,0c0.871,0 1.642,0.563 1.906,1.394s-0.039,1.735 -0.75,2.238c-0.199,0.146 -5.156,3.861 -5.156,12.368c0,1.104 -0.896,2 -2,2z"/>
  <path opacity="0.2" id="svg_15" fill="#231F20" d="m20,21c-1.105,0 -2,-0.895 -2,-2l0,-7c0,-1.105 0.895,-2 2,-2l0,0c1.105,0 2,0.895 2,2l0,7c0,1.105 -0.895,2 -2,2l0,0z"/>
  <path opacity="0.2" id="svg_17" fill="#231F20" d="m45,21c-1.105,0 -2,-0.895 -2,-2l0,-7c0,-1.105 0.895,-2 2,-2l0,0c1.105,0 2,0.895 2,2l0,7c0,1.105 -0.895,2 -2,2l0,0z"/>
  <path id="svg_19" fill="#E0E0D1" d="m20,19c-1.105,0 -2,-0.895 -2,-2l0,-7c0,-1.105 0.895,-2 2,-2l0,0c1.105,0 2,0.895 2,2l0,7c0,1.105 -0.895,2 -2,2l0,0z"/>
  <path id="svg_21" fill="#E0E0D1" d="m45,19c-1.105,0 -2,-0.895 -2,-2l0,-7c0,-1.105 0.895,-2 2,-2l0,0c1.105,0 2,0.895 2,2l0,7c0,1.105 -0.895,2 -2,2l0,0z"/>
 </g>
</svg>