<svg width="64" height="64" xmlns="http://www.w3.org/2000/svg">

 <g>
  <title>background</title>
  <rect fill="none" id="canvas_background" height="402" width="582" y="-1" x="-1"/>
 </g>
 <g>
  <title>Layer 1</title>
  <path id="svg_3" fill="#00d1b2" d="m14.827,0.936c-7.756,0 -14.043,6.287 -14.043,14.043c0,7.756 6.287,14.043 14.043,14.043s14.043,-6.288 14.043,-14.043c0,-7.756 -6.287,-14.043 -14.043,-14.043zm0,24.204c-5.612,0 -10.161,-4.549 -10.161,-10.161c0,-5.612 4.549,-10.161 10.161,-10.161s10.161,4.549 10.161,10.161c0,5.611 -4.549,10.161 -10.161,10.161z"/>
  <path id="svg_4" fill="#00d1b2" d="m21.482,10.062c-0.379,-0.396 -0.889,-0.614 -1.439,-0.614c0,0 0,0 0,0c-0.553,0 -1.066,0.22 -1.439,0.613l-3.999,3.964l-1.516,1.517l-2.029,-1.997c-0.379,-0.4 -0.893,-0.62 -1.445,-0.62c0,0 0,0 0,0c-0.553,0 -1.066,0.22 -1.435,0.608c-0.4,0.38 -0.62,0.893 -0.62,1.446c0,0.553 0.22,1.066 0.614,1.44l3.465,3.465c0.358,0.398 0.887,0.626 1.451,0.626c0.564,0 1.093,-0.228 1.44,-0.614l6.947,-6.947c0.4,-0.38 0.62,-0.893 0.62,-1.446c-0.001,-0.551 -0.219,-1.062 -0.615,-1.441z"/>
  <path id="svg_6" fill="#00d1b2" d="m49.173,34.978c-7.756,0 -14.043,6.287 -14.043,14.043c0,7.756 6.287,14.043 14.043,14.043s14.043,-6.287 14.043,-14.043c0,-7.755 -6.287,-14.043 -14.043,-14.043zm0,24.205c-5.612,0 -10.161,-4.549 -10.161,-10.161c0,-5.612 4.549,-10.161 10.161,-10.161s10.161,4.549 10.161,10.161c0,5.611 -4.549,10.161 -10.161,10.161z"/>
  <path id="svg_7" fill="#00d1b2" d="m55.828,44.105c-0.379,-0.396 -0.889,-0.614 -1.439,-0.614l-0.001,0c-0.552,0 -1.066,0.22 -1.439,0.613l-3.999,3.964l-1.516,1.517l-2.029,-1.997c-0.379,-0.4 -0.893,-0.62 -1.445,-0.62l-0.001,0c-0.552,0 -1.066,0.22 -1.434,0.608c-0.4,0.38 -0.62,0.893 -0.62,1.446c0,0.553 0.22,1.066 0.614,1.44l3.465,3.465c0.358,0.398 0.887,0.626 1.451,0.626c0.564,0 1.093,-0.228 1.44,-0.614l6.947,-6.947c0.4,-0.38 0.62,-0.893 0.62,-1.446c0,-0.551 -0.219,-1.062 -0.614,-1.441z"/>
  <path id="svg_9" fill="#b5b5b5" d="m49.173,0.936c-7.756,0 -14.043,6.287 -14.043,14.043c0,7.756 6.287,14.043 14.043,14.043s14.043,-6.287 14.043,-14.043c0,-7.756 -6.287,-14.043 -14.043,-14.043zm0,24.204c-5.612,0 -10.161,-4.549 -10.161,-10.161c0,-5.612 4.549,-10.161 10.161,-10.161s10.161,4.549 10.161,10.161c0,5.611 -4.549,10.161 -10.161,10.161z"/>
  <path id="svg_10" fill="#b5b5b5" d="m54.884,17.728c0.846,0.804 0.846,2.158 0,2.962c-0.804,0.846 -2.157,0.846 -2.961,0l-2.75,-2.708l-2.75,2.708c-0.804,0.846 -2.157,0.846 -2.961,0c-0.847,-0.803 -0.847,-2.157 0,-2.962l2.708,-2.75l-2.708,-2.75c-0.846,-0.803 -0.846,-2.157 0,-2.962c0.804,-0.846 2.157,-0.846 2.961,0l2.75,2.708l2.75,-2.708c0.804,-0.846 2.157,-0.846 2.961,0c0.847,0.804 0.847,2.158 0,2.962l-2.708,2.75l2.708,2.75z"/>
  <path id="svg_12" fill="#b5b5b5" d="m14.827,34.978c-7.756,0 -14.043,6.287 -14.043,14.043c0,7.756 6.287,14.043 14.043,14.043s14.043,-6.287 14.043,-14.043c0,-7.755 -6.287,-14.043 -14.043,-14.043zm0,24.205c-5.612,0 -10.161,-4.549 -10.161,-10.161c0,-5.612 4.549,-10.161 10.161,-10.161s10.161,4.549 10.161,10.161c0,5.611 -4.549,10.161 -10.161,10.161z"/>
  <path id="svg_13" fill="#b5b5b5" d="m20.538,51.771c0.846,0.804 0.846,2.158 0,2.962c-0.804,0.846 -2.157,0.846 -2.961,0l-2.75,-2.708l-2.75,2.708c-0.804,0.846 -2.157,0.846 -2.961,0c-0.847,-0.803 -0.847,-2.157 0,-2.962l2.708,-2.75l-2.708,-2.75c-0.846,-0.803 -0.846,-2.157 0,-2.962c0.804,-0.846 2.157,-0.846 2.961,0l2.75,2.708l2.75,-2.708c0.804,-0.846 2.157,-0.846 2.961,0c0.847,0.804 0.847,2.158 0,2.962l-2.708,2.75l2.708,2.75z"/>
 </g>
</svg>